<?xml version="1.0" encoding="UTF-8"?>
<svg xmlns="http://www.w3.org/2000/svg" viewBox="0 0 650 500" width="650" height="500"><defs><marker id="arrow" markerWidth="10" markerHeight="10" refX="10" refY="3" orient="auto"><path d="M0,0 L10,3 L0,6 Z" fill="#555" /></marker></defs><rect x="40" y="40" width="570" height="140" fill="#f8f8f8" stroke="#d0d0d0" /><text x="50" y="70" font-size="16" font-family="Segoe UI, sans-serif">営業・コンサル申請者</text><rect x="40" y="180" width="570" height="140" fill="#f0f0f0" stroke="#d0d0d0" /><text x="50" y="210" font-size="16" font-family="Segoe UI, sans-serif">購買担当者</text><rect x="40" y="320" width="570" height="140" fill="#f8f8f8" stroke="#d0d0d0" /><text x="50" y="350" font-size="16" font-family="Segoe UI, sans-serif">役員</text><text x="280.0" y="30" font-size="14" font-family="Segoe UI, sans-serif" text-anchor="middle">申請受付</text><text x="520.0" y="30" font-size="14" font-family="Segoe UI, sans-serif" text-anchor="middle">承認</text><rect x="190" y="226.0" width="180" height="48" rx="6" ry="6" fill="#ffffff" stroke="#555555" /><text x="280.0" y="255.0" font-size="13" font-family="Segoe UI, sans-serif" text-anchor="middle">申請受領</text><rect x="190" y="226.0" width="180" height="48" rx="6" ry="6" fill="#ffffff" stroke="#555555" /><text x="280.0" y="255.0" font-size="13" font-family="Segoe UI, sans-serif" text-anchor="middle">申請内容正規化</text><rect x="430" y="86.0" width="180" height="48" rx="6" ry="6" fill="#ffffff" stroke="#555555" /><text x="520.0" y="115.0" font-size="13" font-family="Segoe UI, sans-serif" text-anchor="middle">一次承認</text><rect x="430" y="86.0" width="180" height="48" rx="6" ry="6" fill="#ffffff" stroke="#555555" /><text x="520.0" y="115.0" font-size="13" font-family="Segoe UI, sans-serif" text-anchor="middle">二次承認</text><rect x="430" y="366.0" width="180" height="48" rx="6" ry="6" fill="#ffffff" stroke="#555555" /><text x="520.0" y="395.0" font-size="13" font-family="Segoe UI, sans-serif" text-anchor="middle">役員承認</text><line x1="370" y1="250.0" x2="430" y2="390.0" stroke="#555" stroke-width="2" marker-end="url(#arrow)" /></svg>