<?xml version="1.0" encoding="UTF-8"?>
<svg xmlns="http://www.w3.org/2000/svg" viewBox="0 0 1370 1200" width="1370" height="1200"><defs><marker id="arrow" markerWidth="10" markerHeight="10" refX="10" refY="3" orient="auto"><path d="M0,0 L10,3 L0,6 Z" fill="#555" /></marker></defs><rect x="40" y="40" width="1290" height="140" fill="#f8f8f8" stroke="#d0d0d0" /><text x="50" y="70" font-size="16" font-family="Segoe UI, sans-serif">Infrastructure Operations Team - North America</text><rect x="40" y="180" width="1290" height="140" fill="#f0f0f0" stroke="#d0d0d0" /><text x="50" y="210" font-size="16" font-family="Segoe UI, sans-serif">Infrastructure Operations Team - EMEA</text><rect x="40" y="320" width="1290" height="140" fill="#f8f8f8" stroke="#d0d0d0" /><text x="50" y="350" font-size="16" font-family="Segoe UI, sans-serif">Infrastructure Operations Team - APAC</text><rect x="40" y="460" width="1290" height="140" fill="#f0f0f0" stroke="#d0d0d0" /><text x="50" y="490" font-size="16" font-family="Segoe UI, sans-serif">Change Advisory Board</text><rect x="40" y="600" width="1290" height="140" fill="#f8f8f8" stroke="#d0d0d0" /><text x="50" y="630" font-size="16" font-family="Segoe UI, sans-serif">ServiceNow System</text><rect x="40" y="740" width="1290" height="140" fill="#f0f0f0" stroke="#d0d0d0" /><text x="50" y="770" font-size="16" font-family="Segoe UI, sans-serif">PagerDuty System</text><rect x="40" y="880" width="1290" height="140" fill="#f8f8f8" stroke="#d0d0d0" /><text x="50" y="910" font-size="16" font-family="Segoe UI, sans-serif">Zoom</text><rect x="40" y="1020" width="1290" height="140" fill="#f0f0f0" stroke="#d0d0d0" /><text x="50" y="1050" font-size="16" font-family="Segoe UI, sans-serif">Confluence</text><text x="280.0" y="30" font-size="14" font-family="Segoe UI, sans-serif" text-anchor="middle">Change Request Submission</text><text x="520.0" y="30" font-size="14" font-family="Segoe UI, sans-serif" text-anchor="middle">Regional Approval</text><text x="760.0" y="30" font-size="14" font-family="Segoe UI, sans-serif" text-anchor="middle">CAB Review</text><text x="1000.0" y="30" font-size="14" font-family="Segoe UI, sans-serif" text-anchor="middle">Implementation</text><text x="1240.0" y="30" font-size="14" font-family="Segoe UI, sans-serif" text-anchor="middle">Closure</text><rect x="190" y="86.0" width="180" height="48" rx="6" ry="6" fill="#ffffff" stroke="#555555" /><text x="280.0" y="115.0" font-size="13" font-family="Segoe UI, sans-serif" text-anchor="middle">Submit Change Request</text><rect x="430" y="86.0" width="180" height="48" rx="6" ry="6" fill="#ffffff" stroke="#555555" /><text x="520.0" y="115.0" font-size="13" font-family="Segoe UI, sans-serif" text-anchor="middle">Regional Approval - North America</text><rect x="430" y="226.0" width="180" height="48" rx="6" ry="6" fill="#ffffff" stroke="#555555" /><text x="520.0" y="255.0" font-size="13" font-family="Segoe UI, sans-serif" text-anchor="middle">Regional Approval - EMEA</text><rect x="430" y="366.0" width="180" height="48" rx="6" ry="6" fill="#ffffff" stroke="#555555" /><text x="520.0" y="395.0" font-size="13" font-family="Segoe UI, sans-serif" text-anchor="middle">Regional Approval - APAC</text><rect x="670" y="506.0" width="180" height="48" rx="6" ry="6" fill="#ffffff" stroke="#555555" /><text x="760.0" y="535.0" font-size="13" font-family="Segoe UI, sans-serif" text-anchor="middle">CAB Review for Major Changes</text><rect x="910" y="86.0" width="180" height="48" rx="6" ry="6" fill="#ffffff" stroke="#555555" /><text x="1000.0" y="115.0" font-size="13" font-family="Segoe UI, sans-serif" text-anchor="middle">Implementation of Approved Change</text><rect x="1150" y="86.0" width="180" height="48" rx="6" ry="6" fill="#ffffff" stroke="#555555" /><text x="1240.0" y="115.0" font-size="13" font-family="Segoe UI, sans-serif" text-anchor="middle">Change Closure and Documentation</text><polygon points="280.0,95.6 294.4,110.0 280.0,124.4 265.6,110.0" fill="#fff4e6" stroke="#d17a22" stroke-width="2" /><text x="280.0" y="115.0" font-size="12" font-family="Segoe UI, sans-serif" text-anchor="middle">Risk Level Assessment</text><polygon points="280.0,95.6 294.4,110.0 280.0,124.4 265.6,110.0" fill="#fff4e6" stroke="#d17a22" stroke-width="2" /><text x="280.0" y="115.0" font-size="12" font-family="Segoe UI, sans-serif" text-anchor="middle">CAB Approval Gate</text><line x1="370" y1="110.0" x2="1150" y2="110.0" stroke="#555" stroke-width="2" marker-end="url(#arrow)" /></svg>