<?xml version="1.0" encoding="UTF-8"?>
<svg xmlns="http://www.w3.org/2000/svg" viewBox="0 0 890 360" width="890" height="360"><defs><marker id="arrow" markerWidth="10" markerHeight="10" refX="10" refY="3" orient="auto"><path d="M0,0 L10,3 L0,6 Z" fill="#555" /></marker></defs><rect x="40" y="40" width="810" height="140" fill="#f8f8f8" stroke="#d0d0d0" /><text x="50" y="70" font-size="16" font-family="Segoe UI, sans-serif">営業部</text><rect x="40" y="180" width="810" height="140" fill="#f0f0f0" stroke="#d0d0d0" /><text x="50" y="210" font-size="16" font-family="Segoe UI, sans-serif">総務部</text><text x="280.0" y="30" font-size="14" font-family="Segoe UI, sans-serif" text-anchor="middle">申請準備フェーズ</text><text x="520.0" y="30" font-size="14" font-family="Segoe UI, sans-serif" text-anchor="middle">承認フェーズ</text><text x="760.0" y="30" font-size="14" font-family="Segoe UI, sans-serif" text-anchor="middle">購入実行フェーズ</text><rect x="190" y="28.0" width="180" height="48" rx="6" ry="6" fill="#ffffff" stroke="#555555" /><text x="280.0" y="57.0" font-size="13" font-family="Segoe UI, sans-serif" text-anchor="middle">備品ニーズ確認</text><rect x="190" y="86.0" width="180" height="48" rx="6" ry="6" fill="#ffffff" stroke="#555555" /><text x="280.0" y="115.0" font-size="13" font-family="Segoe UI, sans-serif" text-anchor="middle">見積取得</text><rect x="190" y="144.0" width="180" height="48" rx="6" ry="6" fill="#ffffff" stroke="#555555" /><text x="280.0" y="173.0" font-size="13" font-family="Segoe UI, sans-serif" text-anchor="middle">申請書作成</text><rect x="430" y="86.0" width="180" height="48" rx="6" ry="6" fill="#ffffff" stroke="#555555" /><text x="520.0" y="115.0" font-size="13" font-family="Segoe UI, sans-serif" text-anchor="middle">部長承認</text><rect x="670" y="197.0" width="180" height="48" rx="6" ry="6" fill="#ffffff" stroke="#555555" /><text x="760.0" y="226.0" font-size="13" font-family="Segoe UI, sans-serif" text-anchor="middle">総務承認・発注</text><rect x="670" y="255.0" width="180" height="48" rx="6" ry="6" fill="#ffffff" stroke="#555555" /><text x="760.0" y="284.0" font-size="13" font-family="Segoe UI, sans-serif" text-anchor="middle">納品受領</text><polygon points="280.0,95.6 294.4,110.0 280.0,124.4 265.6,110.0" fill="#fff4e6" stroke="#d17a22" stroke-width="2" /><text x="280.0" y="115.0" font-size="12" font-family="Segoe UI, sans-serif" text-anchor="middle">金額判定</text><line x1="370" y1="52.0" x2="190" y2="110.0" stroke="#555" stroke-width="2" marker-end="url(#arrow)" /><line x1="370" y1="110.0" x2="190" y2="168.0" stroke="#555" stroke-width="2" marker-end="url(#arrow)" /><line x1="370" y1="168.0" x2="280.0" y2="110.0" stroke="#555" stroke-width="2" marker-end="url(#arrow)" /><line x1="460.0" y1="134.0" x2="430" y2="110.0" stroke="#555" stroke-width="2" marker-end="url(#arrow)" /><text x="355.0" y="94.0" font-size="11" font-family="Segoe UI, sans-serif" text-anchor="middle" fill="#444">金額が10万円以上</text><line x1="460.0" y1="134.0" x2="670" y2="221.0" stroke="#555" stroke-width="2" marker-end="url(#arrow)" /><text x="475.0" y="149.5" font-size="11" font-family="Segoe UI, sans-serif" text-anchor="middle" fill="#444">金額が10万円未満</text><line x1="610" y1="110.0" x2="670" y2="221.0" stroke="#555" stroke-width="2" marker-end="url(#arrow)" /><line x1="850" y1="221.0" x2="670" y2="279.0" stroke="#555" stroke-width="2" marker-end="url(#arrow)" /></svg>