<?xml version="1.0" encoding="UTF-8"?>
<svg xmlns="http://www.w3.org/2000/svg" viewBox="0 0 1240 700" width="1240" height="700"><style>
            .lane { fill: #f8f8f8; stroke: #000; stroke-width: 1; }
            .lane-label { font-family: Arial, sans-serif; font-size: 14px; font-weight: bold; }
            .task { fill: #fff; stroke: #000; stroke-width: 2; }
            .service-task { fill: #e1f5ff; stroke: #000; stroke-width: 2; }
            .gateway { fill: #fffacd; stroke: #000; stroke-width: 2; }
            .task-label { font-family: Arial, sans-serif; font-size: 12px; text-anchor: middle; }
            .flow { stroke: #000; stroke-width: 2; fill: none; marker-end: url(#arrowhead); }
            .flow-label { font-family: Arial, sans-serif; font-size: 10px; fill: #666; }
        </style><defs><marker id="arrowhead" markerWidth="10" markerHeight="10" refX="10" refY="3" orient="auto"><path d="M0,0 L10,3 L0,6 Z" fill="#000" /></marker></defs><rect class="lane" x="50" y="50" width="1140" height="200" /><text class="lane-label" x="65" y="80">営業・コンサル</text><rect class="lane" x="50" y="250" width="1140" height="200" /><text class="lane-label" x="65" y="280">購買担当</text><rect class="lane" x="50" y="450" width="1140" height="200" /><text class="lane-label" x="65" y="480">経理／役員決裁</text><line class="flow" x1="410" y1="140.0" x2="490" y2="240.0" /><line class="flow" x1="670" y1="240.0" x2="750" y2="330.0" /><line class="flow" x1="810" y1="330.0" x2="750" y2="440.0" /><text class="flow-label" x="780.0" y="380.0" text-anchor="middle">&gt;=300k</text><line class="flow" x1="810" y1="330.0" x2="1010" y2="540.0" /><text class="flow-label" x="910.0" y="430.0" text-anchor="middle">&lt;300k</text><line class="flow" x1="930" y1="440.0" x2="1010" y2="540.0" /><rect class="task" x="230" y="100.0" width="180" height="80" rx="8" ry="8" /><text class="task-label" x="320.0" y="145.0">申請フォーム受領</text><rect class="task" x="490" y="200.0" width="180" height="80" rx="8" ry="8" /><text class="task-label" x="580.0" y="245.0">入力内容の正規化</text><rect class="task" x="750" y="400.0" width="180" height="80" rx="8" ry="8" /><text class="task-label" x="840.0" y="445.0">二段階承認</text><rect class="task" x="1010" y="500.0" width="180" height="80" rx="8" ry="8" /><text class="task-label" x="1100.0" y="545.0">発注・記録更新</text><polygon class="gateway" points="780.0,300.0 810.0,330.0 780.0,360.0 750.0,330.0" /><line x1="768.0" y1="318.0" x2="792.0" y2="342.0" stroke="#000" stroke-width="2" /><line x1="792.0" y1="318.0" x2="768.0" y2="342.0" stroke="#000" stroke-width="2" /><text class="task-label" x="780.0" y="375.0">30万円超か？</text></svg>