<?xml version="1.0" encoding="UTF-8"?>
<svg xmlns="http://www.w3.org/2000/svg" viewBox="0 0 590 730.0" width="590" height="730"><style>
        .bpmn-lane { fill: #f8f8f8; stroke: #000; stroke-width: 1; }
        .bpmn-lane:nth-of-type(even) { fill: #e8e8e8; }
        .bpmn-task { fill: #fff; stroke: #000; stroke-width: 1.5; }
        .bpmn-service-task { fill: #e1f5fe; stroke: #01579b; stroke-width: 1.5; }
        .bpmn-gateway { fill: #ffffcc; stroke: #ff9800; stroke-width: 2; }
        .bpmn-flow { stroke: #000; stroke-width: 1.5; fill: none; }
        .bpmn-text { font-family: Arial, sans-serif; font-size: 12px; text-anchor: middle; }
        .bpmn-label { font-family: Arial, sans-serif; font-size: 11px; fill: #666; }
        .bpmn-lane-label { font-family: Arial, sans-serif; font-size: 14px; font-weight: bold; }
    </style><defs><marker id="arrow" markerWidth="10" markerHeight="10" refX="9" refY="3" orient="auto" markerUnits="strokeWidth"><path d="M0,0 L0,6 L9,3 z" fill="#000" /></marker></defs><rect class="bpmn-lane" x="50" y="50" width="490" height="160.0" /><text class="bpmn-lane-label" x="65" y="130.0" text-anchor="middle" transform="rotate(-90 65 130.0)">HRBP</text><rect class="bpmn-lane" x="50" y="210.0" width="490" height="160.0" /><text class="bpmn-lane-label" x="65" y="290.0" text-anchor="middle" transform="rotate(-90 65 290.0)">情シス</text><rect class="bpmn-lane" x="50" y="370.0" width="490" height="160.0" /><text class="bpmn-lane-label" x="65" y="450.0" text-anchor="middle" transform="rotate(-90 65 450.0)">部門メンター</text><rect class="bpmn-lane" x="50" y="530.0" width="490" height="150" /><text class="bpmn-lane-label" x="65" y="605.0" text-anchor="middle" transform="rotate(-90 65 605.0)">新入社員</text><rect class="bpmn-task" x="80" y="130.0" width="100" height="80" rx="5" ry="5" /><text class="bpmn-text" x="130.0" y="174.0">必要書類収集</text><rect class="bpmn-task" x="80" y="290.0" width="100" height="80" rx="5" ry="5" /><text class="bpmn-text" x="130.0" y="334.0">アカウント発行</text><rect class="bpmn-task" x="260" y="450.0" width="100" height="80" rx="5" ry="5" /><text class="bpmn-text" x="310.0" y="494.0">オリエンテーション</text><rect class="bpmn-task" x="440" y="450.0" width="100" height="80" rx="5" ry="5" /><text class="bpmn-text" x="490.0" y="494.0">30日面談</text><polygon class="bpmn-gateway" points="130,265.0 155.0,290.0 130,315.0 105.0,290.0" /><line x1="120.0" y1="280.0" x2="140.0" y2="300.0" stroke="#ff9800" stroke-width="2" /><line x1="140.0" y1="280.0" x2="120.0" y2="300.0" stroke="#ff9800" stroke-width="2" /><text class="bpmn-text" x="130" y="330.0" font-size="11">備品準備済みか</text><path class="bpmn-flow" d="M 180,170.0 L 80,330.0" marker-end="url(#arrow)" /><path class="bpmn-flow" d="M 180,330.0 L 130,315.0" marker-end="url(#arrow)" /><path class="bpmn-flow" d="M 180,315.0 L 260,490.0" marker-end="url(#arrow)" /><text class="bpmn-label" x="260" y="485.0" text-anchor="middle">準備済み</text><path class="bpmn-flow" d="M 180,315.0 L 80,330.0" marker-end="url(#arrow)" /><text class="bpmn-label" x="80" y="325.0" text-anchor="middle">不足あり</text><path class="bpmn-flow" d="M 360,490.0 L 440,490.0" marker-end="url(#arrow)" /></svg>