<?xml version="1.0" encoding="UTF-8"?>
<svg xmlns="http://www.w3.org/2000/svg" viewBox="0 0 1460 940" width="1460" height="940"><style>
            .lane { fill: #f8f8f8; stroke: #000; stroke-width: 1; }
            .lane-label { font-family: Arial, sans-serif; font-size: 14px; font-weight: bold; }
            .task { fill: #fff; stroke: #000; stroke-width: 2; }
            .service-task { fill: #e1f5ff; stroke: #000; stroke-width: 2; }
            .gateway { fill: #fffacd; stroke: #000; stroke-width: 2; }
            .task-label { font-family: Arial, sans-serif; font-size: 12px; text-anchor: middle; }
            .flow { stroke: #000; stroke-width: 2; fill: none; marker-end: url(#arrowhead); }
            .flow-label { font-family: Arial, sans-serif; font-size: 10px; fill: #666; }
        </style><defs><marker id="arrowhead" markerWidth="10" markerHeight="10" refX="10" refY="3" orient="auto"><path d="M0,0 L10,3 L0,6 Z" fill="#000" /></marker></defs><rect class="lane" x="50" y="50" width="1360" height="150" /><text class="lane-label" x="65" y="80">営業・コンサル</text><rect class="lane" x="50" y="200" width="1360" height="540" /><text class="lane-label" x="65" y="230">購買担当</text><rect class="lane" x="50" y="740" width="1360" height="150" /><text class="lane-label" x="65" y="770">経理／役員決裁</text><polyline class="flow" points="410.0,470.0 510.0,470.0" /><polyline class="flow" points="690.0,470.0 790.0,470.0" /><polyline class="flow" points="850.0,470.0 950.0,470.0" /><text class="flow-label" x="950.0" y="465.0" text-anchor="middle">&gt;=300k</text><polyline class="flow" points="850.0,470.0 1040.0,470.0 1040.0,470.0 1230.0,470.0" /><text class="flow-label" x="1040.0" y="465.0" text-anchor="middle">&lt;300k</text><polyline class="flow" points="1130.0,470.0 1230.0,470.0" /><rect class="task" x="230.0" y="430.0" width="180" height="80" rx="8" ry="8" /><text class="task-label" x="320.0" y="475.0">申請フォーム受領</text><rect class="task" x="510.0" y="430.0" width="180" height="80" rx="8" ry="8" /><text class="task-label" x="600.0" y="475.0">入力内容の正規化</text><rect class="task" x="950.0" y="430.0" width="180" height="80" rx="8" ry="8" /><text class="task-label" x="1040.0" y="475.0">二段階承認</text><rect class="task" x="1230.0" y="430.0" width="180" height="80" rx="8" ry="8" /><text class="task-label" x="1320.0" y="475.0">発注・記録更新</text><polygon class="gateway" points="820.0,440.0 850.0,470.0 820.0,500.0 790.0,470.0" /><line x1="808.0" y1="458.0" x2="832.0" y2="482.0" stroke="#000" stroke-width="2" /><line x1="832.0" y1="458.0" x2="808.0" y2="482.0" stroke="#000" stroke-width="2" /><text class="task-label" x="820.0" y="515.0">30万円超か？</text></svg>