<?xml version="1.0" encoding="UTF-8"?>
<svg xmlns="http://www.w3.org/2000/svg" viewBox="0 0 1240 900" width="1240" height="900"><style>
            .lane { fill: #f8f8f8; stroke: #000; stroke-width: 1; }
            .lane-label { font-family: Arial, sans-serif; font-size: 14px; font-weight: bold; }
            .task { fill: #fff; stroke: #000; stroke-width: 2; }
            .service-task { fill: #e1f5ff; stroke: #000; stroke-width: 2; }
            .gateway { fill: #fffacd; stroke: #000; stroke-width: 2; }
            .task-label { font-family: Arial, sans-serif; font-size: 12px; text-anchor: middle; }
            .flow { stroke: #000; stroke-width: 2; fill: none; marker-end: url(#arrowhead); }
            .flow-label { font-family: Arial, sans-serif; font-size: 10px; fill: #666; }
        </style><defs><marker id="arrowhead" markerWidth="10" markerHeight="10" refX="10" refY="3" orient="auto"><path d="M0,0 L10,3 L0,6 Z" fill="#000" /></marker></defs><rect class="lane" x="50" y="50" width="1140" height="200" /><text class="lane-label" x="65" y="80">北米運用チーム</text><rect class="lane" x="50" y="250" width="1140" height="200" /><text class="lane-label" x="65" y="280">EMEA運用チーム</text><rect class="lane" x="50" y="450" width="1140" height="200" /><text class="lane-label" x="65" y="480">APAC運用チーム</text><rect class="lane" x="50" y="650" width="1140" height="200" /><text class="lane-label" x="65" y="680">CAB</text><line class="flow" x1="410" y1="140.0" x2="490" y2="340.0" /><line class="flow" x1="670" y1="340.0" x2="750" y2="480.0" /><line class="flow" x1="810" y1="480.0" x2="750" y2="590.0" /><text class="flow-label" x="780.0" y="530.0" text-anchor="middle">高リスク</text><line class="flow" x1="810" y1="480.0" x2="1010" y2="680.0" /><text class="flow-label" x="910.0" y="575.0" text-anchor="middle">低〜中リスク</text><line class="flow" x1="1070" y1="680.0" x2="1010" y2="790.0" /><text class="flow-label" x="1040.0" y="730.0" text-anchor="middle">緊急</text><line class="flow" x1="930" y1="590.0" x2="1010" y2="790.0" /><line class="flow" x1="1070" y1="680.0" x2="750" y2="590.0" /><text class="flow-label" x="910.0" y="630.0" text-anchor="middle">通常</text><rect class="task" x="230" y="100.0" width="180" height="80" rx="8" ry="8" /><text class="task-label" x="320.0" y="145.0">変更リクエスト登録</text><rect class="task" x="490" y="300.0" width="180" height="80" rx="8" ry="8" /><text class="task-label" x="580.0" y="345.0">地域代表レビュー</text><rect class="task" x="750" y="550.0" width="180" height="80" rx="8" ry="8" /><text class="task-label" x="840.0" y="595.0">CAB レビュー準備</text><rect class="task" x="1010" y="750.0" width="180" height="80" rx="8" ry="8" /><text class="task-label" x="1100.0" y="795.0">変更実行と結果記録</text><polygon class="gateway" points="780.0,450.0 810.0,480.0 780.0,510.0 750.0,480.0" /><line x1="768.0" y1="468.0" x2="792.0" y2="492.0" stroke="#000" stroke-width="2" /><line x1="792.0" y1="468.0" x2="768.0" y2="492.0" stroke="#000" stroke-width="2" /><text class="task-label" x="780.0" y="525.0">リスクレベル判定</text><polygon class="gateway" points="1040.0,650.0 1070.0,680.0 1040.0,710.0 1010.0,680.0" /><line x1="1028.0" y1="668.0" x2="1052.0" y2="692.0" stroke="#000" stroke-width="2" /><line x1="1052.0" y1="668.0" x2="1028.0" y2="692.0" stroke="#000" stroke-width="2" /><text class="task-label" x="1040.0" y="725.0">緊急変更か</text></svg>