<?xml version="1.0" encoding="UTF-8"?>
<svg xmlns="http://www.w3.org/2000/svg" viewBox="0 0 770 740.0" width="770" height="740"><style>
        .bpmn-lane { fill: #f8f8f8; stroke: #000; stroke-width: 1; }
        .bpmn-lane:nth-of-type(even) { fill: #e8e8e8; }
        .bpmn-task { fill: #fff; stroke: #000; stroke-width: 1.5; }
        .bpmn-service-task { fill: #e1f5fe; stroke: #01579b; stroke-width: 1.5; }
        .bpmn-gateway { fill: #ffffcc; stroke: #ff9800; stroke-width: 2; }
        .bpmn-flow { stroke: #000; stroke-width: 1.5; fill: none; }
        .bpmn-text { font-family: Arial, sans-serif; font-size: 12px; text-anchor: middle; }
        .bpmn-label { font-family: Arial, sans-serif; font-size: 11px; fill: #666; }
        .bpmn-lane-label { font-family: Arial, sans-serif; font-size: 14px; font-weight: bold; }
    </style><defs><marker id="arrow" markerWidth="10" markerHeight="10" refX="9" refY="3" orient="auto" markerUnits="strokeWidth"><path d="M0,0 L0,6 L9,3 z" fill="#000" /></marker></defs><rect class="bpmn-lane" x="50" y="50" width="670" height="160.0" /><text class="bpmn-lane-label" x="65" y="130.0" text-anchor="middle" transform="rotate(-90 65 130.0)">北米運用チーム</text><rect class="bpmn-lane" x="50" y="210.0" width="670" height="160.0" /><text class="bpmn-lane-label" x="65" y="290.0" text-anchor="middle" transform="rotate(-90 65 290.0)">EMEA運用チーム</text><rect class="bpmn-lane" x="50" y="370.0" width="670" height="160.0" /><text class="bpmn-lane-label" x="65" y="450.0" text-anchor="middle" transform="rotate(-90 65 450.0)">APAC運用チーム</text><rect class="bpmn-lane" x="50" y="530.0" width="670" height="160.0" /><text class="bpmn-lane-label" x="65" y="610.0" text-anchor="middle" transform="rotate(-90 65 610.0)">CAB</text><rect class="bpmn-task" x="80" y="130.0" width="100" height="80" rx="5" ry="5" /><text class="bpmn-text" x="130.0" y="174.0">変更リクエスト登録</text><rect class="bpmn-task" x="260" y="290.0" width="100" height="80" rx="5" ry="5" /><text class="bpmn-text" x="310.0" y="334.0">地域代表レビュー</text><rect class="bpmn-task" x="440" y="450.0" width="100" height="80" rx="5" ry="5" /><text class="bpmn-text" x="490.0" y="494.0">CAB レビュー準備</text><rect class="bpmn-task" x="620" y="610.0" width="100" height="80" rx="5" ry="5" /><text class="bpmn-text" x="670.0" y="654.0">変更実行と結果記録</text><polygon class="bpmn-gateway" points="310,265.0 335.0,290.0 310,315.0 285.0,290.0" /><line x1="300.0" y1="280.0" x2="320.0" y2="300.0" stroke="#ff9800" stroke-width="2" /><line x1="320.0" y1="280.0" x2="300.0" y2="300.0" stroke="#ff9800" stroke-width="2" /><text class="bpmn-text" x="310" y="330.0" font-size="11">リスクレベル判定</text><polygon class="bpmn-gateway" points="490,265.0 515.0,290.0 490,315.0 465.0,290.0" /><line x1="480.0" y1="280.0" x2="500.0" y2="300.0" stroke="#ff9800" stroke-width="2" /><line x1="500.0" y1="280.0" x2="480.0" y2="300.0" stroke="#ff9800" stroke-width="2" /><text class="bpmn-text" x="490" y="330.0" font-size="11">緊急変更か</text><path class="bpmn-flow" d="M 180,170.0 L 260,330.0" marker-end="url(#arrow)" /><path class="bpmn-flow" d="M 360,330.0 L 310,315.0" marker-end="url(#arrow)" /><path class="bpmn-flow" d="M 360,315.0 L 440,490.0" marker-end="url(#arrow)" /><text class="bpmn-label" x="440" y="485.0" text-anchor="middle">高リスク</text><path class="bpmn-flow" d="M 360,315.0 L 490,315.0" marker-end="url(#arrow)" /><text class="bpmn-label" x="490" y="310.0" text-anchor="middle">低〜中リスク</text><path class="bpmn-flow" d="M 540,315.0 L 620,650.0" marker-end="url(#arrow)" /><text class="bpmn-label" x="620" y="645.0" text-anchor="middle">緊急</text><path class="bpmn-flow" d="M 540,490.0 L 620,650.0" marker-end="url(#arrow)" /><path class="bpmn-flow" d="M 540,315.0 L 440,490.0" marker-end="url(#arrow)" /><text class="bpmn-label" x="440" y="485.0" text-anchor="middle">通常</text></svg>