<?xml version="1.0" encoding="UTF-8"?>
<svg xmlns="http://www.w3.org/2000/svg" viewBox="0 0 1620 880" width="1620" height="880"><style>
            .lane { fill: #f8f8f8; stroke: #000; stroke-width: 1; }
            .lane-label { font-family: Arial, sans-serif; font-size: 14px; font-weight: bold; }
            .task { fill: #fff; stroke: #000; stroke-width: 2; }
            .service-task { fill: #e1f5ff; stroke: #000; stroke-width: 2; }
            .gateway { fill: #fffacd; stroke: #000; stroke-width: 2; }
            .task-label { font-family: Arial, sans-serif; font-size: 12px; text-anchor: middle; }
            .flow { stroke: #000; stroke-width: 2; fill: none; marker-end: url(#arrowhead); }
            .flow-label { font-family: Arial, sans-serif; font-size: 10px; fill: #666; }
        </style><defs><marker id="arrowhead" markerWidth="10" markerHeight="10" refX="10" refY="3" orient="auto"><path d="M0,0 L10,3 L0,6 Z" fill="#000" /></marker></defs><rect class="lane" x="50" y="50" width="1520" height="150" /><text class="lane-label" x="65" y="80">北米運用チーム</text><rect class="lane" x="50" y="200" width="1520" height="240" /><text class="lane-label" x="65" y="230">EMEA運用チーム</text><rect class="lane" x="50" y="440" width="1520" height="150" /><text class="lane-label" x="65" y="470">APAC運用チーム</text><rect class="lane" x="50" y="590" width="1520" height="240" /><text class="lane-label" x="65" y="620">CAB</text><polyline class="flow" points="410.0,125.0 460.0,125.0 460.0,320.0 510.0,320.0" /><polyline class="flow" points="690.0,320.0 790.0,320.0" /><polyline class="flow" points="850.0,320.0 980.0,320.0 980.0,515.0 1110.0,515.0" /><text class="flow-label" x="980.0" y="510.0" text-anchor="middle">高リスク</text><polyline class="flow" points="850.0,320.0 900.0,320.0 900.0,710.0 950.0,710.0" /><text class="flow-label" x="900.0" y="705.0" text-anchor="middle">低〜中リスク</text><polyline class="flow" points="1010.0,710.0 1200.0,710.0 1200.0,710.0 1390.0,710.0" /><text class="flow-label" x="1200.0" y="705.0" text-anchor="middle">緊急</text><polyline class="flow" points="1290.0,515.0 1340.0,515.0 1340.0,710.0 1390.0,710.0" /><polyline class="flow" points="1010.0,710.0 1060.0,710.0 1060.0,515.0 1110.0,515.0" /><text class="flow-label" x="1060.0" y="510.0" text-anchor="middle">通常</text><rect class="task" x="230.0" y="85.0" width="180" height="80" rx="8" ry="8" /><text class="task-label" x="320.0" y="130.0">変更リクエスト登録</text><rect class="task" x="510.0" y="280.0" width="180" height="80" rx="8" ry="8" /><text class="task-label" x="600.0" y="325.0">地域代表レビュー</text><rect class="task" x="1110.0" y="475.0" width="180" height="80" rx="8" ry="8" /><text class="task-label" x="1200.0" y="520.0">CAB レビュー準備</text><rect class="task" x="1390.0" y="670.0" width="180" height="80" rx="8" ry="8" /><text class="task-label" x="1480.0" y="715.0">変更実行と結果記録</text><polygon class="gateway" points="820.0,290.0 850.0,320.0 820.0,350.0 790.0,320.0" /><line x1="808.0" y1="308.0" x2="832.0" y2="332.0" stroke="#000" stroke-width="2" /><line x1="832.0" y1="308.0" x2="808.0" y2="332.0" stroke="#000" stroke-width="2" /><text class="task-label" x="820.0" y="365.0">リスクレベル判定</text><polygon class="gateway" points="980.0,680.0 1010.0,710.0 980.0,740.0 950.0,710.0" /><line x1="968.0" y1="698.0" x2="992.0" y2="722.0" stroke="#000" stroke-width="2" /><line x1="992.0" y1="698.0" x2="968.0" y2="722.0" stroke="#000" stroke-width="2" /><text class="task-label" x="980.0" y="755.0">緊急変更か</text></svg>