<?xml version="1.0" encoding="UTF-8"?>
<svg xmlns="http://www.w3.org/2000/svg" viewBox="0 0 740 880" width="740" height="880"><style>
            .lane { fill: #f8f8f8; stroke: #000; stroke-width: 1; }
            .lane-label { font-family: Arial, sans-serif; font-size: 14px; font-weight: bold; }
            .task { fill: #fff; stroke: #000; stroke-width: 2; }
            .service-task { fill: #e1f5ff; stroke: #000; stroke-width: 2; }
            .gateway { fill: #fffacd; stroke: #000; stroke-width: 2; }
            .task-label { font-family: Arial, sans-serif; font-size: 12px; text-anchor: middle; }
            .flow { stroke: #000; stroke-width: 2; fill: none; marker-end: url(#arrowhead); }
            .flow-label { font-family: Arial, sans-serif; font-size: 10px; fill: #666; }
        </style><defs><marker id="arrowhead" markerWidth="10" markerHeight="10" refX="10" refY="3" orient="auto"><path d="M0,0 L10,3 L0,6 Z" fill="#000" /></marker></defs><rect class="lane" x="50" y="50" width="640" height="150" /><text class="lane-label" x="65" y="80">HRBP</text><rect class="lane" x="50" y="200" width="640" height="240" /><text class="lane-label" x="65" y="230">情シス</text><rect class="lane" x="50" y="440" width="640" height="240" /><text class="lane-label" x="65" y="470">部門メンター</text><rect class="lane" x="50" y="680" width="640" height="150" /><text class="lane-label" x="65" y="710">新入社員</text><polyline class="flow" points="410.0,125.0 460.0,125.0 460.0,360.0 510.0,360.0" /><polyline class="flow" points="690.0,360.0 570.0,270.0" /><polyline class="flow" points="630.0,270.0 570.0,270.0 570.0,510.0 510.0,510.0" /><text class="flow-label" x="570.0" y="505.0" text-anchor="middle">準備済み</text><polyline class="flow" points="630.0,270.0 510.0,360.0" /><text class="flow-label" x="510.0" y="355.0" text-anchor="middle">不足あり</text><polyline class="flow" points="690.0,510.0 510.0,610.0" /><rect class="task" x="230.0" y="85.0" width="180" height="80" rx="8" ry="8" /><text class="task-label" x="320.0" y="130.0">必要書類収集</text><rect class="task" x="510.0" y="320.0" width="180" height="80" rx="8" ry="8" /><text class="task-label" x="600.0" y="365.0">アカウント発行</text><rect class="task" x="510.0" y="470.0" width="180" height="80" rx="8" ry="8" /><text class="task-label" x="600.0" y="515.0">オリエンテーション</text><rect class="task" x="510.0" y="570.0" width="180" height="80" rx="8" ry="8" /><text class="task-label" x="600.0" y="615.0">30日面談</text><polygon class="gateway" points="600.0,240.0 630.0,270.0 600.0,300.0 570.0,270.0" /><line x1="588.0" y1="258.0" x2="612.0" y2="282.0" stroke="#000" stroke-width="2" /><line x1="612.0" y1="258.0" x2="588.0" y2="282.0" stroke="#000" stroke-width="2" /><text class="task-label" x="600.0" y="315.0">備品準備済みか</text></svg>