<?xml version="1.0" encoding="UTF-8"?>
<svg xmlns="http://www.w3.org/2000/svg" viewBox="0 0 980 504" width="980" height="504"><style>
            .lane { fill: #f8f8f8; stroke: #000; stroke-width: 1; }
            .lane-label { font-family: Arial, sans-serif; font-size: 14px; font-weight: bold; }
            .task { fill: #fff; stroke: #000; stroke-width: 2; }
            .service-task { fill: #e1f5ff; stroke: #000; stroke-width: 2; }
            .gateway { fill: #fffacd; stroke: #000; stroke-width: 2; }
            .task-label { font-family: Arial, sans-serif; font-size: 12px; text-anchor: middle; }
            .flow { stroke: #000; stroke-width: 2; fill: none; marker-end: url(#arrowhead); }
            .flow-label { font-family: Arial, sans-serif; font-size: 10px; fill: #666; }
        </style><defs><marker id="arrowhead" markerWidth="10" markerHeight="10" refX="10" refY="3" orient="auto"><path d="M0,0 L10,3 L0,6 Z" fill="#000" /></marker></defs><rect class="lane" x="50" y="50" width="880" height="202" /><text class="lane-label" x="65" y="80">営業部</text><rect class="lane" x="50" y="252" width="880" height="202" /><text class="lane-label" x="65" y="282">総務部</text><line class="flow" x1="410" y1="90.0" x2="230" y2="190.0" /><line class="flow" x1="410" y1="190.0" x2="230" y2="290.0" /><line class="flow" x1="410" y1="290.0" x2="1010" y2="380.0" /><line class="flow" x1="1070" y1="380.0" x2="490" y2="490.0" /><text class="flow-label" x="780.0" y="430.0" text-anchor="middle">10万円以上</text><line class="flow" x1="1070" y1="380.0" x2="750" y2="442.0" /><text class="flow-label" x="910.0" y="406.0" text-anchor="middle">10万円未満</text><line class="flow" x1="670" y1="490.0" x2="750" y2="442.0" /><line class="flow" x1="930" y1="442.0" x2="750" y2="542.0" /><rect class="task" x="230" y="50.0" width="180" height="80" rx="8" ry="8" /><text class="task-label" x="320.0" y="95.0">備品ニーズ確認</text><rect class="task" x="230" y="150.0" width="180" height="80" rx="8" ry="8" /><text class="task-label" x="320.0" y="195.0">見積取得</text><rect class="task" x="230" y="250.0" width="180" height="80" rx="8" ry="8" /><text class="task-label" x="320.0" y="295.0">申請書作成</text><rect class="task" x="490" y="450.0" width="180" height="80" rx="8" ry="8" /><text class="task-label" x="580.0" y="495.0">部長承認</text><rect class="task" x="750" y="402.0" width="180" height="80" rx="8" ry="8" /><text class="task-label" x="840.0" y="447.0">総務承認・発注</text><rect class="task" x="750" y="502.0" width="180" height="80" rx="8" ry="8" /><text class="task-label" x="840.0" y="547.0">納品受領</text><polygon class="gateway" points="1040.0,350.0 1070.0,380.0 1040.0,410.0 1010.0,380.0" /><line x1="1028.0" y1="368.0" x2="1052.0" y2="392.0" stroke="#000" stroke-width="2" /><line x1="1052.0" y1="368.0" x2="1028.0" y2="392.0" stroke="#000" stroke-width="2" /><text class="task-label" x="1040.0" y="425.0">10万円判定</text></svg>