<?xml version="1.0" encoding="UTF-8"?>
<svg xmlns="http://www.w3.org/2000/svg" viewBox="0 0 2020 880" width="2020" height="880"><style>
            .lane { fill: #f8f8f8; stroke: #000; stroke-width: 1; }
            .lane-label { font-family: Arial, sans-serif; font-size: 14px; font-weight: bold; }
            .task { fill: #fff; stroke: #000; stroke-width: 2; }
            .service-task { fill: #e1f5ff; stroke: #000; stroke-width: 2; }
            .gateway { fill: #fffacd; stroke: #000; stroke-width: 2; }
            .task-label { font-family: Arial, sans-serif; font-size: 12px; text-anchor: middle; }
            .flow { stroke: #000; stroke-width: 2; fill: none; marker-end: url(#arrowhead); }
            .flow-label { font-family: Arial, sans-serif; font-size: 10px; fill: #666; }
        </style><defs><marker id="arrowhead" markerWidth="10" markerHeight="10" refX="10" refY="3" orient="auto"><path d="M0,0 L10,3 L0,6 Z" fill="#000" /></marker></defs><rect class="lane" x="50" y="50" width="1920" height="540" /><text class="lane-label" x="65" y="80">営業部</text><rect class="lane" x="50" y="590" width="1920" height="240" /><text class="lane-label" x="65" y="620">総務部</text><polyline class="flow" points="410.0,320.0 510.0,320.0" /><polyline class="flow" points="690.0,320.0 790.0,320.0" /><polyline class="flow" points="970.0,320.0 1070.0,320.0" /><polyline class="flow" points="1130.0,320.0 1230.0,320.0" /><text class="flow-label" x="1230.0" y="315.0" text-anchor="middle">10万円以上</text><polyline class="flow" points="1130.0,320.0 1320.0,320.0 1320.0,710.0 1510.0,710.0" /><text class="flow-label" x="1320.0" y="705.0" text-anchor="middle">10万円未満</text><polyline class="flow" points="1410.0,320.0 1460.0,320.0 1460.0,710.0 1510.0,710.0" /><polyline class="flow" points="1690.0,710.0 1790.0,710.0" /><rect class="task" x="230.0" y="280.0" width="180" height="80" rx="8" ry="8" /><text class="task-label" x="320.0" y="325.0">備品ニーズ確認</text><rect class="task" x="510.0" y="280.0" width="180" height="80" rx="8" ry="8" /><text class="task-label" x="600.0" y="325.0">見積取得</text><rect class="task" x="790.0" y="280.0" width="180" height="80" rx="8" ry="8" /><text class="task-label" x="880.0" y="325.0">申請書作成</text><rect class="task" x="1230.0" y="280.0" width="180" height="80" rx="8" ry="8" /><text class="task-label" x="1320.0" y="325.0">部長承認</text><rect class="task" x="1510.0" y="670.0" width="180" height="80" rx="8" ry="8" /><text class="task-label" x="1600.0" y="715.0">総務承認・発注</text><rect class="task" x="1790.0" y="670.0" width="180" height="80" rx="8" ry="8" /><text class="task-label" x="1880.0" y="715.0">納品受領</text><polygon class="gateway" points="1100.0,290.0 1130.0,320.0 1100.0,350.0 1070.0,320.0" /><line x1="1088.0" y1="308.0" x2="1112.0" y2="332.0" stroke="#000" stroke-width="2" /><line x1="1112.0" y1="308.0" x2="1088.0" y2="332.0" stroke="#000" stroke-width="2" /><text class="task-label" x="1100.0" y="365.0">10万円判定</text></svg>