<?xml version="1.0" encoding="UTF-8"?>
<svg xmlns="http://www.w3.org/2000/svg" viewBox="0 0 590 600.0" width="590" height="600"><style>
        .bpmn-lane { fill: #f8f8f8; stroke: #000; stroke-width: 1; }
        .bpmn-lane:nth-of-type(even) { fill: #e8e8e8; }
        .bpmn-task { fill: #fff; stroke: #000; stroke-width: 1.5; }
        .bpmn-service-task { fill: #e1f5fe; stroke: #01579b; stroke-width: 1.5; }
        .bpmn-gateway { fill: #ffffcc; stroke: #ff9800; stroke-width: 2; }
        .bpmn-flow { stroke: #000; stroke-width: 1.5; fill: none; }
        .bpmn-text { font-family: Arial, sans-serif; font-size: 12px; text-anchor: middle; }
        .bpmn-label { font-family: Arial, sans-serif; font-size: 11px; fill: #666; }
        .bpmn-lane-label { font-family: Arial, sans-serif; font-size: 14px; font-weight: bold; }
    </style><defs><marker id="arrow" markerWidth="10" markerHeight="10" refX="9" refY="3" orient="auto" markerUnits="strokeWidth"><path d="M0,0 L0,6 L9,3 z" fill="#000" /></marker></defs><rect class="bpmn-lane" x="50" y="50" width="490" height="280.0" /><text class="bpmn-lane-label" x="65" y="190.0" text-anchor="middle" transform="rotate(-90 65 190.0)">営業部</text><rect class="bpmn-lane" x="50" y="330.0" width="490" height="220.0" /><text class="bpmn-lane-label" x="65" y="440.0" text-anchor="middle" transform="rotate(-90 65 440.0)">総務部</text><rect class="bpmn-task" x="80" y="70.0" width="100" height="80" rx="5" ry="5" /><text class="bpmn-text" x="130.0" y="114.0">備品ニーズ確認</text><rect class="bpmn-task" x="80" y="190.0" width="100" height="80" rx="5" ry="5" /><text class="bpmn-text" x="130.0" y="234.0">見積取得</text><rect class="bpmn-task" x="80" y="310.0" width="100" height="80" rx="5" ry="5" /><text class="bpmn-text" x="130.0" y="354.0">申請書作成</text><rect class="bpmn-task" x="260" y="190.0" width="100" height="80" rx="5" ry="5" /><text class="bpmn-text" x="310.0" y="234.0">部長承認</text><rect class="bpmn-task" x="440" y="380.0" width="100" height="80" rx="5" ry="5" /><text class="bpmn-text" x="490.0" y="424.0">総務承認・発注</text><rect class="bpmn-task" x="440" y="500.0" width="100" height="80" rx="5" ry="5" /><text class="bpmn-text" x="490.0" y="544.0">納品受領</text><polygon class="bpmn-gateway" points="310,165.0 335.0,190.0 310,215.0 285.0,190.0" /><line x1="300.0" y1="180.0" x2="320.0" y2="200.0" stroke="#ff9800" stroke-width="2" /><line x1="320.0" y1="180.0" x2="300.0" y2="200.0" stroke="#ff9800" stroke-width="2" /><text class="bpmn-text" x="310" y="230.0" font-size="11">10万円判定</text><path class="bpmn-flow" d="M 180,110.0 L 80,230.0" marker-end="url(#arrow)" /><path class="bpmn-flow" d="M 180,230.0 L 80,350.0" marker-end="url(#arrow)" /><path class="bpmn-flow" d="M 180,350.0 L 310,215.0" marker-end="url(#arrow)" /><path class="bpmn-flow" d="M 360,215.0 L 260,230.0" marker-end="url(#arrow)" /><text class="bpmn-label" x="260" y="225.0" text-anchor="middle">10万円以上</text><path class="bpmn-flow" d="M 360,215.0 L 440,420.0" marker-end="url(#arrow)" /><text class="bpmn-label" x="440" y="415.0" text-anchor="middle">10万円未満</text><path class="bpmn-flow" d="M 360,230.0 L 440,420.0" marker-end="url(#arrow)" /><path class="bpmn-flow" d="M 540,420.0 L 440,540.0" marker-end="url(#arrow)" /></svg>