<?xml version="1.0" encoding="UTF-8"?>
<svg xmlns="http://www.w3.org/2000/svg" viewBox="0 0 980 900" width="980" height="900"><style>
            .lane { fill: #f8f8f8; stroke: #000; stroke-width: 1; }
            .lane-label { font-family: Arial, sans-serif; font-size: 14px; font-weight: bold; }
            .task { fill: #fff; stroke: #000; stroke-width: 2; }
            .service-task { fill: #e1f5ff; stroke: #000; stroke-width: 2; }
            .gateway { fill: #fffacd; stroke: #000; stroke-width: 2; }
            .task-label { font-family: Arial, sans-serif; font-size: 12px; text-anchor: middle; }
            .flow { stroke: #000; stroke-width: 2; fill: none; marker-end: url(#arrowhead); }
            .flow-label { font-family: Arial, sans-serif; font-size: 10px; fill: #666; }
        </style><defs><marker id="arrowhead" markerWidth="10" markerHeight="10" refX="10" refY="3" orient="auto"><path d="M0,0 L10,3 L0,6 Z" fill="#000" /></marker></defs><rect class="lane" x="50" y="50" width="880" height="200" /><text class="lane-label" x="65" y="80">HRBP</text><rect class="lane" x="50" y="250" width="880" height="200" /><text class="lane-label" x="65" y="280">情シス</text><rect class="lane" x="50" y="450" width="880" height="200" /><text class="lane-label" x="65" y="480">部門メンター</text><rect class="lane" x="50" y="650" width="880" height="200" /><text class="lane-label" x="65" y="680">新入社員</text><line class="flow" x1="410" y1="140.0" x2="230" y2="340.0" /><line class="flow" x1="410" y1="340.0" x2="490" y2="630.0" /><line class="flow" x1="550" y1="630.0" x2="490" y2="540.0" /><text class="flow-label" x="520.0" y="580.0" text-anchor="middle">準備済み</text><line class="flow" x1="550" y1="630.0" x2="230" y2="340.0" /><text class="flow-label" x="390.0" y="480.0" text-anchor="middle">不足あり</text><line class="flow" x1="670" y1="540.0" x2="750" y2="440.0" /><rect class="task" x="230" y="100.0" width="180" height="80" rx="8" ry="8" /><text class="task-label" x="320.0" y="145.0">必要書類収集</text><rect class="task" x="230" y="300.0" width="180" height="80" rx="8" ry="8" /><text class="task-label" x="320.0" y="345.0">アカウント発行</text><rect class="task" x="490" y="500.0" width="180" height="80" rx="8" ry="8" /><text class="task-label" x="580.0" y="545.0">オリエンテーション</text><rect class="task" x="750" y="400.0" width="180" height="80" rx="8" ry="8" /><text class="task-label" x="840.0" y="445.0">30日面談</text><polygon class="gateway" points="520.0,600.0 550.0,630.0 520.0,660.0 490.0,630.0" /><line x1="508.0" y1="618.0" x2="532.0" y2="642.0" stroke="#000" stroke-width="2" /><line x1="532.0" y1="618.0" x2="508.0" y2="642.0" stroke="#000" stroke-width="2" /><text class="task-label" x="520.0" y="675.0">備品準備済みか</text></svg>