<?xml version="1.0" encoding="UTF-8"?>
<svg xmlns="http://www.w3.org/2000/svg" viewBox="0 0 770 560.0" width="770" height="560"><style>
        .bpmn-lane { fill: #f8f8f8; stroke: #000; stroke-width: 1; }
        .bpmn-lane:nth-of-type(even) { fill: #e8e8e8; }
        .bpmn-task { fill: #fff; stroke: #000; stroke-width: 1.5; }
        .bpmn-service-task { fill: #e1f5fe; stroke: #01579b; stroke-width: 1.5; }
        .bpmn-gateway { fill: #ffffcc; stroke: #ff9800; stroke-width: 2; }
        .bpmn-flow { stroke: #000; stroke-width: 1.5; fill: none; }
        .bpmn-text { font-family: Arial, sans-serif; font-size: 12px; text-anchor: middle; }
        .bpmn-label { font-family: Arial, sans-serif; font-size: 11px; fill: #666; }
        .bpmn-lane-label { font-family: Arial, sans-serif; font-size: 14px; font-weight: bold; }
    </style><defs><marker id="arrow" markerWidth="10" markerHeight="10" refX="9" refY="3" orient="auto" markerUnits="strokeWidth"><path d="M0,0 L0,6 L9,3 z" fill="#000" /></marker></defs><rect class="bpmn-lane" x="50" y="50" width="670" height="150" /><text class="bpmn-lane-label" x="65" y="125.0" text-anchor="middle" transform="rotate(-90 65 125.0)">営業・コンサル</text><rect class="bpmn-lane" x="50" y="200" width="670" height="160.0" /><text class="bpmn-lane-label" x="65" y="280.0" text-anchor="middle" transform="rotate(-90 65 280.0)">購買担当</text><rect class="bpmn-lane" x="50" y="360.0" width="670" height="150" /><text class="bpmn-lane-label" x="65" y="435.0" text-anchor="middle" transform="rotate(-90 65 435.0)">経理／役員決裁</text><rect class="bpmn-task" x="80" y="280.0" width="100" height="80" rx="5" ry="5" /><text class="bpmn-text" x="130.0" y="324.0">申請フォーム受領</text><rect class="bpmn-task" x="260" y="280.0" width="100" height="80" rx="5" ry="5" /><text class="bpmn-text" x="310.0" y="324.0">入力内容の正規化</text><rect class="bpmn-task" x="440" y="280.0" width="100" height="80" rx="5" ry="5" /><text class="bpmn-text" x="490.0" y="324.0">二段階承認</text><rect class="bpmn-task" x="620" y="280.0" width="100" height="80" rx="5" ry="5" /><text class="bpmn-text" x="670.0" y="324.0">発注・記録更新</text><polygon class="bpmn-gateway" points="490,255.0 515.0,280.0 490,305.0 465.0,280.0" /><line x1="480.0" y1="270.0" x2="500.0" y2="290.0" stroke="#ff9800" stroke-width="2" /><line x1="500.0" y1="270.0" x2="480.0" y2="290.0" stroke="#ff9800" stroke-width="2" /><text class="bpmn-text" x="490" y="320.0" font-size="11">30万円超か？</text><path class="bpmn-flow" d="M 180,320.0 L 260,320.0" marker-end="url(#arrow)" /><path class="bpmn-flow" d="M 360,320.0 L 490,305.0" marker-end="url(#arrow)" /><path class="bpmn-flow" d="M 540,305.0 L 440,320.0" marker-end="url(#arrow)" /><text class="bpmn-label" x="440" y="315.0" text-anchor="middle">&gt;=300k</text><path class="bpmn-flow" d="M 540,305.0 L 620,320.0" marker-end="url(#arrow)" /><text class="bpmn-label" x="620" y="315.0" text-anchor="middle">&lt;300k</text><path class="bpmn-flow" d="M 540,320.0 L 620,320.0" marker-end="url(#arrow)" /></svg>