<?xml version="1.0" encoding="UTF-8"?>
<svg xmlns="http://www.w3.org/2000/svg" viewBox="0 0 890 640" width="890" height="640"><defs><marker id="arrow" markerWidth="10" markerHeight="10" refX="10" refY="3" orient="auto"><path d="M0,0 L10,3 L0,6 Z" fill="#555" /></marker></defs><rect x="40" y="40" width="810" height="140" fill="#f8f8f8" stroke="#d0d0d0" /><text x="50" y="70" font-size="16" font-family="Segoe UI, sans-serif">HRBP</text><rect x="40" y="180" width="810" height="140" fill="#f0f0f0" stroke="#d0d0d0" /><text x="50" y="210" font-size="16" font-family="Segoe UI, sans-serif">情シス</text><rect x="40" y="320" width="810" height="140" fill="#f8f8f8" stroke="#d0d0d0" /><text x="50" y="350" font-size="16" font-family="Segoe UI, sans-serif">メンター</text><rect x="40" y="460" width="810" height="140" fill="#f0f0f0" stroke="#d0d0d0" /><text x="50" y="490" font-size="16" font-family="Segoe UI, sans-serif">入社者</text><text x="280.0" y="30" font-size="14" font-family="Segoe UI, sans-serif" text-anchor="middle">入社前準備</text><text x="520.0" y="30" font-size="14" font-family="Segoe UI, sans-serif" text-anchor="middle">初週サポート</text><text x="760.0" y="30" font-size="14" font-family="Segoe UI, sans-serif" text-anchor="middle">30日フォロー</text><rect x="190" y="197.0" width="180" height="48" rx="6" ry="6" fill="#ffffff" stroke="#555555" /><text x="280.0" y="226.0" font-size="13" font-family="Segoe UI, sans-serif" text-anchor="middle">アカウント発行</text><rect x="190" y="255.0" width="180" height="48" rx="6" ry="6" fill="#ffffff" stroke="#555555" /><text x="280.0" y="284.0" font-size="13" font-family="Segoe UI, sans-serif" text-anchor="middle">備品調達</text><rect x="430" y="86.0" width="180" height="48" rx="6" ry="6" fill="#ffffff" stroke="#555555" /><text x="520.0" y="115.0" font-size="13" font-family="Segoe UI, sans-serif" text-anchor="middle">研修計画</text><rect x="430" y="366.0" width="180" height="48" rx="6" ry="6" fill="#ffffff" stroke="#555555" /><text x="520.0" y="395.0" font-size="13" font-family="Segoe UI, sans-serif" text-anchor="middle">初期研修</text><rect x="670" y="337.0" width="180" height="48" rx="6" ry="6" fill="#ffffff" stroke="#555555" /><text x="760.0" y="366.0" font-size="13" font-family="Segoe UI, sans-serif" text-anchor="middle">30日レビュー</text><rect x="670" y="86.0" width="180" height="48" rx="6" ry="6" fill="#ffffff" stroke="#555555" /><text x="760.0" y="115.0" font-size="13" font-family="Segoe UI, sans-serif" text-anchor="middle">フィードバック収集</text><rect x="670" y="395.0" width="180" height="48" rx="6" ry="6" fill="#ffffff" stroke="#555555" /><text x="760.0" y="424.0" font-size="13" font-family="Segoe UI, sans-serif" text-anchor="middle">業務パフォーマンス確認</text><rect x="670" y="226.0" width="180" height="48" rx="6" ry="6" fill="#ffffff" stroke="#555555" /><text x="760.0" y="255.0" font-size="13" font-family="Segoe UI, sans-serif" text-anchor="middle">ドキュメント更新</text><line x1="370" y1="221.0" x2="190" y2="279.0" stroke="#555" stroke-width="2" marker-end="url(#arrow)" /><line x1="370" y1="279.0" x2="430" y2="110.0" stroke="#555" stroke-width="2" marker-end="url(#arrow)" /><line x1="610" y1="110.0" x2="430" y2="390.0" stroke="#555" stroke-width="2" marker-end="url(#arrow)" /><line x1="610" y1="390.0" x2="670" y2="361.0" stroke="#555" stroke-width="2" marker-end="url(#arrow)" /><line x1="850" y1="361.0" x2="670" y2="110.0" stroke="#555" stroke-width="2" marker-end="url(#arrow)" /><line x1="850" y1="110.0" x2="670" y2="419.0" stroke="#555" stroke-width="2" marker-end="url(#arrow)" /><line x1="850" y1="419.0" x2="670" y2="250.0" stroke="#555" stroke-width="2" marker-end="url(#arrow)" /></svg>